<svg width="151" height="150" viewBox="0 0 151 150" fill="none" xmlns="http://www.w3.org/2000/svg">
<path d="M104.997 97.0324C104.896 96.1578 104.542 95.0967 103.548 94.896C103.174 94.8544 102.794 94.8989 102.447 95.025C102.101 95.1512 101.8 95.3542 101.577 95.6129C101.127 96.1442 100.601 96.6259 100.011 97.0468C99.8438 97.1267 99.6612 97.1801 99.4718 97.2045C99.1355 97.2383 98.8103 97.3281 98.5149 97.4689C98.2194 97.6097 97.9594 97.7987 97.7498 98.0251C97.5402 98.2515 97.385 98.5108 97.2932 98.7882C97.2014 99.0657 97.1747 99.3558 97.2147 99.642C97.2335 99.8136 97.2788 99.9823 97.3494 100.144V100.302C97.7706 101.583 98.294 102.838 98.9159 104.058C99.0646 104.374 99.3016 104.655 99.6065 104.876C99.843 105.029 100.12 105.132 100.413 105.174C100.707 105.217 101.008 105.198 101.291 105.119C105.889 104.073 105.401 100.359 104.997 97.0324Z" fill="white"/>
<path d="M100.65 105.507C100.869 105.528 101.089 105.528 101.307 105.507C106.361 104.417 105.822 100.388 105.434 97.1334C105.266 95.6995 104.643 94.8822 103.649 94.6815C103.202 94.6313 102.748 94.6816 102.331 94.8275C101.914 94.9735 101.55 95.2098 101.274 95.5131L100.819 95.9719C100.544 96.3068 100.202 96.5979 99.8082 96.8322C99.6821 96.887 99.5449 96.9211 99.404 96.9326C98.9344 97.0072 98.4887 97.1659 98.0967 97.3983C97.7046 97.6307 97.3751 97.9314 97.13 98.2804C96.9171 98.5956 96.7913 98.9479 96.7621 99.3106C96.7329 99.6733 96.8011 100.037 96.9616 100.374V100.503C97.3808 101.8 97.91 103.07 98.5449 104.303C98.6922 104.671 98.9473 105.002 99.2861 105.263C99.6925 105.48 100.176 105.566 100.65 105.507ZM104.575 97.0617V97.1477C104.963 100.417 105.384 103.801 101.072 104.733C100.866 104.79 100.648 104.806 100.435 104.778C100.221 104.751 100.018 104.681 99.8419 104.575C99.6352 104.367 99.4753 104.129 99.3703 103.872C98.7466 102.669 98.2287 101.428 97.8206 100.159V99.958C97.7094 99.7274 97.6621 99.478 97.6826 99.2293C97.703 98.9807 97.7906 98.7393 97.9385 98.5242C98.1203 98.268 98.3649 98.0483 98.6557 97.8801C98.9464 97.7118 99.2763 97.5989 99.623 97.5492C99.874 97.521 100.115 97.4477 100.33 97.3341C100.789 97.0559 101.193 96.717 101.526 96.3304L101.964 95.9003C102.217 95.6708 102.874 95.1547 103.531 95.2837C104.188 95.4128 104.592 96.5025 104.659 97.1047L104.575 97.0617Z" fill="black"/>
<path d="M99.8421 66.9362C100.448 67.6244 101.021 68.5851 100.465 69.302C99.9095 70.0189 97.6523 69.8612 96.9112 69.8182C96.1701 69.7752 95.3615 71.252 93.2223 71.0943C91.5379 70.9796 90.5104 66.5634 90.0051 65.359C89.8702 65.0567 89.8017 64.736 89.803 64.4126C89.8554 64.179 89.971 63.9589 90.1405 63.7697C90.3101 63.5806 90.529 63.4276 90.7799 63.3229C94.9573 61.3586 97.5007 64.3123 99.8421 66.9362Z" fill="white"/>
<path d="M93.4911 71.4533C94.5161 71.4275 95.4939 71.0803 96.2367 70.4783C96.4165 70.3341 96.6284 70.222 96.8599 70.1485C96.8599 70.1485 100.229 70.3063 100.785 69.4746C101.189 68.9871 101.391 68.0408 100.161 66.693L99.8245 66.9081L100.094 66.5926C97.8368 64.0261 95.0407 60.8573 90.5602 62.9077C90.238 63.0431 89.9611 63.2455 89.755 63.4961C89.5489 63.7467 89.4203 64.0374 89.3811 64.3415C89.3437 64.724 89.419 65.1084 89.6001 65.4599L89.9538 66.5066C90.7792 69.0588 91.6382 71.353 93.171 71.4533H93.4911ZM96.8599 69.4603C96.4323 69.5067 96.0352 69.6733 95.7313 69.9335C95.3998 70.2064 95.006 70.4185 94.5743 70.5566C94.1426 70.6947 93.6822 70.7559 93.2215 70.7364C92.1604 70.7364 91.2171 67.7254 90.7623 66.3059C90.6107 65.8614 90.4928 65.4742 90.3917 65.2161C90.2628 64.968 90.1995 64.6988 90.2064 64.4275C90.2493 64.2505 90.3402 64.0844 90.4718 63.9425C90.6034 63.8006 90.7721 63.6869 90.9644 63.6102C94.7881 61.8466 97.1462 64.5136 99.3865 67.0945L99.7908 66.9367L99.4539 67.1518C99.875 67.6393 100.515 68.5857 100.06 69.1018C99.0556 69.4419 97.9677 69.565 96.8936 69.4603H96.8599Z" fill="black"/>
<path d="M17.07 45.7735C17.7241 46.3811 18.521 46.8649 19.4089 47.1935C20.2969 47.522 21.2561 47.6879 22.2243 47.6805C24.1259 47.7669 26.0327 47.6513 27.9008 47.3363C31.6441 46.72 35.306 45.7882 38.8326 44.5547C42.3412 43.3326 45.7221 41.8601 48.9391 40.1528C52.1611 38.4297 55.2346 36.5131 58.136 34.4175C63.8706 30.2102 69.1165 25.5431 73.8011 20.4806C76.1953 17.985 78.3312 15.3177 80.185 12.5085C81.1287 11.0678 81.8532 9.53085 82.3411 7.93453C82.6233 7.10517 82.7651 6.24576 82.7622 5.3823C82.6983 4.4235 82.3189 3.49931 81.6673 2.71536C80.9799 1.9283 80.0458 1.32204 78.9722 0.966081C77.9528 0.627509 76.8799 0.419725 75.7887 0.349531C73.7848 0.221978 71.7697 0.347608 69.809 0.722331C66.0557 1.43072 62.4103 2.50356 58.9445 3.91979C52.0276 6.67114 45.5194 10.1126 39.5569 14.1717C33.5287 18.146 28.1824 22.8176 23.6729 28.0512C21.4343 30.6949 19.5048 33.5187 17.9122 36.4822C17.1339 37.9627 16.5683 39.5177 16.2278 41.1135C15.9868 41.898 15.9372 42.7162 16.0821 43.5177C16.2269 44.3192 16.5631 45.0869 17.07 45.7735ZM17.3732 45.5584C16.8795 44.9124 16.5601 44.1814 16.4378 43.4178C16.3155 42.6542 16.3933 41.8771 16.6657 41.1422C17.1211 39.6251 17.8423 38.175 18.8049 36.8407C20.7163 34.1708 22.9766 31.6936 25.5426 29.4564C28.1029 27.1909 30.798 25.0689 33.5267 22.9755C36.2555 20.8821 39.0853 18.8747 41.9488 16.982C47.711 13.1128 53.873 9.6959 60.3594 6.77312C63.5901 5.35527 66.9748 4.20761 70.4659 3.34625C72.1094 2.93379 73.807 2.69777 75.5192 2.64367C76.2839 2.57796 77.0563 2.65136 77.7852 2.859C78.5141 3.06664 79.1828 3.40379 79.7471 3.84809C80.2106 4.40212 80.5275 5.03514 80.6758 5.7035C80.8241 6.37187 80.8003 7.05966 80.6061 7.71945C80.3005 9.21691 79.7327 10.6669 78.9217 12.021C77.2209 14.832 75.1161 17.4522 72.6557 19.821C67.668 24.4943 62.0672 28.6654 55.9631 32.2524C52.9817 34.102 49.9666 35.9087 46.901 37.6293C43.8353 39.3499 40.736 41.0561 37.5356 42.6047C34.3558 44.2227 30.9637 45.5173 27.4291 46.4617C25.6739 46.9334 23.8459 47.1799 22.0053 47.193C21.1331 47.2199 20.2641 47.088 19.4566 46.8062C18.649 46.5243 17.9215 46.0989 17.3226 45.5584H17.3732Z" fill="#FFDB2C"/>
<path d="M23.4701 47.9527C24.9845 47.9247 26.4939 47.7953 27.9844 47.5656C31.7572 46.9353 35.4432 45.9743 38.9836 44.6979C42.5191 43.505 45.9331 42.0663 49.1912 40.3964C52.4228 38.6653 55.5124 36.7491 58.4386 34.6611C64.172 30.4474 69.4176 25.7756 74.1037 20.7098C76.5147 18.2034 78.6622 15.5214 80.5213 12.6947C81.4818 11.2205 82.223 9.65038 82.7279 8.02039C82.9802 7.14375 83.0824 6.24064 83.0311 5.33911C82.9751 4.31489 82.5669 3.32724 81.8572 2.49879C81.1475 1.67035 80.1675 1.0376 79.039 0.679145C78.015 0.334487 76.9363 0.121851 75.8386 0.0482589C73.8068 -0.079279 71.7639 0.0463082 69.7747 0.421054C65.965 1.11957 62.2668 2.20261 58.7586 3.64719C51.8221 6.4063 45.2919 9.85219 39.3036 13.9135C33.2606 17.9112 27.9079 22.6124 23.4028 27.879C21.1322 30.5077 19.1848 33.3281 17.5915 36.2956C16.8129 37.8009 16.2475 39.3797 15.9071 40.9986C15.3912 42.3353 15.5201 43.7917 16.2656 45.0474C17.0111 46.3032 18.3121 47.2554 19.8823 47.6946C20.6698 47.9113 21.4997 47.9941 22.3247 47.9384L23.4701 47.9527ZM74.3395 0.636132C74.8217 0.606636 75.3058 0.606636 75.7881 0.636132C76.8178 0.695332 77.8299 0.893776 78.7863 1.224C79.8047 1.55808 80.6921 2.12953 81.3467 2.87292C81.9689 3.61709 82.3257 4.4983 82.3742 5.41081C82.4044 6.2171 82.3023 7.02303 82.071 7.80531C81.6019 9.38428 80.8882 10.9031 79.9486 12.3219C78.116 15.1209 75.9846 17.7703 73.5815 20.2367C68.9334 25.2946 63.7087 29.9485 57.9838 34.1306C55.084 36.2215 52.0165 38.1379 48.8038 39.8659C45.5842 41.5409 42.2032 42.9799 38.6973 44.1674C35.1956 45.3876 31.5625 46.3144 27.8496 46.9347C26.525 47.1375 25.1855 47.2621 23.8407 47.3075C25.1726 47.1979 26.4877 46.972 27.7654 46.6336C31.2983 45.673 34.6895 44.3692 37.8719 42.7479C41.2407 41.1133 44.6096 39.3067 47.2709 37.7582C49.9323 36.2096 53.0316 34.4317 56.3499 32.3813C62.4598 28.7675 68.0758 24.5833 73.093 19.9069C75.5587 17.5405 77.6744 14.9257 79.3927 12.1212C80.2046 10.727 80.7721 9.23915 81.0771 7.70495C81.2917 7.00499 81.3183 6.27289 81.155 5.56298C80.9917 4.85307 80.6427 4.18357 80.1339 3.60417C79.5409 3.12998 78.8363 2.76844 78.0667 2.5435C77.2972 2.31856 76.4803 2.23535 75.6702 2.29938C73.9012 2.35118 72.1469 2.59204 70.4485 3.0163C66.9564 3.88746 63.5717 5.04472 60.342 6.47185C53.808 9.38501 47.6053 12.8074 41.8134 16.6951C38.5962 18.7742 35.5811 20.9966 33.3914 22.7029C30.7974 24.6959 28.0181 26.8753 25.3904 29.1982C22.7724 31.4675 20.4667 33.9834 18.518 36.6971C17.7068 37.8486 17.0674 39.0816 16.6146 40.3677C16.9865 39.0617 17.5054 37.7893 18.1642 36.5681C19.7495 33.6389 21.6676 30.8487 23.8913 28.2375C28.3734 23.0197 33.6981 18.3665 39.7079 14.4153C45.6507 10.3735 52.1362 6.94657 59.0282 4.20639C62.4957 2.79718 66.1407 1.72924 69.8926 1.02327C71.3567 0.771943 72.846 0.642288 74.3395 0.636132ZM75.7881 2.91593C76.4897 2.86217 77.1969 2.93388 77.8641 3.12649C78.5312 3.31909 79.1437 3.62832 79.6622 4.03432C80.1021 4.55113 80.4013 5.14477 80.5382 5.7722C80.6751 6.39963 80.6463 7.04514 80.4539 7.66193C80.1387 9.15734 79.5714 10.6061 78.7695 11.9634C77.1327 14.7417 75.0834 17.3294 72.6719 19.6631C67.7069 24.3219 62.1285 28.4787 56.0467 32.0515C52.6779 34.1019 49.7807 35.8655 46.9846 37.4284C44.1885 38.9913 41.0217 40.7692 37.6361 42.3895C34.4916 43.9937 31.1398 45.2832 27.6475 46.2321C25.9184 46.692 24.1194 46.9336 22.3079 46.9491C21.4532 46.9871 20.5989 46.8686 19.8027 46.6014C19.0065 46.3343 18.2869 45.9247 17.6926 45.4005C17.235 44.7841 16.9407 44.0903 16.8301 43.3672C16.7196 42.6441 16.7955 41.9093 17.0525 41.2137C17.4904 39.6986 18.1946 38.2484 19.1412 36.9122C21.0588 34.2591 23.3187 31.7967 25.8789 29.571C28.5065 27.2625 31.2521 25.0974 33.8461 23.1043C36.1033 21.4124 39.1015 19.19 42.2682 17.1253C48.0117 13.2677 54.1573 9.86488 60.6283 6.95935C63.8131 5.53555 67.1526 4.37828 70.6001 3.5038C72.2414 3.08339 73.9402 2.8472 75.6533 2.80122L75.7881 2.91593Z" fill="#CC781D"/>
<path d="M19.1247 77.8911C15.8907 56.2545 25.9972 37.9874 51.8024 33.5855C78.753 28.9829 92.5484 44.3249 100.65 61.3159C101.897 63.9542 100.785 63.8538 97.6522 64.8288C93.0032 66.2626 89.4659 63.7964 85.6928 64.4417C71.3416 66.8935 63.7954 84.286 66.6421 96.5023C69.4888 108.719 80.3532 108.503 94.7045 106.052C98.5786 105.378 100.516 102.926 103.986 101.392C104.662 101.115 105.412 100.997 106.16 101.047C106.908 101.098 107.627 101.317 108.243 101.681C108.86 102.046 109.351 102.543 109.669 103.121C109.986 103.7 110.117 104.34 110.049 104.976C108.517 122.283 98.9829 142.729 64.2671 148.665C35.0425 153.655 6.99695 139.517 1.77526 117.121C-1.69463 102.295 5.44729 87.6842 19.1247 77.8911Z" fill="#80E165"/>
<g opacity="0.21">
<path d="M19.1245 77.8908C15.8904 56.2542 25.9969 37.9872 51.8022 33.5853C56.7437 32.6973 61.8316 32.5662 66.8271 33.1981C65.7828 33.3272 64.7048 33.4706 63.6099 33.657C37.8047 38.0589 27.6982 56.3259 30.9323 77.9625C17.2548 87.6983 10.0455 102.338 13.5322 117.149C17.7264 134.986 36.2887 147.561 58.3882 149.468C31.4376 151.805 6.65984 138.083 1.70766 117.149C-1.69485 102.295 5.44706 87.6839 19.1245 77.8908Z" fill="black"/>
</g>
<path d="M107.54 101.64L107.537 101.638C106.927 101.285 106.213 101.078 105.47 101.042C104.729 101.006 103.991 101.142 103.337 101.434C102.089 102.015 100.909 102.693 99.8093 103.459C98.1767 104.715 96.2138 105.615 94.0893 106.082L94.0894 106.082L94.0775 106.084C86.3213 107.403 80.0187 107.905 75.3136 106.639C72.9536 106.003 70.9881 104.921 69.4435 103.271C67.8997 101.621 66.7901 99.4175 66.1173 96.561L66.117 96.5599C64.6698 90.2844 65.8925 82.888 69.2342 76.7637C72.5768 70.6375 78.0576 65.7539 85.1507 64.5551L85.158 64.5538L85.1653 64.553C86.7838 64.3769 88.428 64.4963 89.9887 64.9038L89.9888 64.9037L89.9937 64.9051C92.3008 65.5579 94.7904 65.5832 97.1153 64.9773L98.1695 64.6355L98.1695 64.6354L98.1759 64.6335L98.2308 64.6173C98.8687 64.4294 99.3748 64.2803 99.7659 64.1055C100.165 63.9271 100.405 63.7382 100.536 63.4937C100.676 63.2316 100.707 63.0044 100.646 62.7079C100.582 62.391 100.415 62.0023 100.143 61.4237C94.8261 50.113 88.165 42.2095 80.0682 37.6039C71.974 32.9999 62.4172 31.6758 51.2766 33.5753C39.2557 35.6319 30.207 40.7926 24.5942 48.3628C18.982 55.9323 16.782 65.9417 18.5179 77.7414L18.5401 77.8922L18.4162 77.981C4.19522 88.1735 -2.24345 102.789 1.13071 117.079L1.13077 117.079C5.69315 136.484 27.2833 149.75 51.9418 149.75C55.8873 149.746 59.8227 149.411 63.6908 148.75C81.3309 145.733 92.4161 138.946 99.2772 130.858C106.14 122.768 108.798 113.353 109.536 105.043C109.589 104.383 109.435 103.721 109.087 103.124C108.738 102.526 108.206 102.012 107.54 101.64ZM105.249 101.1H105.254C106.039 101.1 106.809 101.3 107.465 101.677C108.109 102.029 108.637 102.523 108.99 103.114C109.344 103.705 109.508 104.37 109.462 105.038L109.461 105.043C108.725 113.336 106.073 122.754 99.2079 130.85C92.341 138.949 81.2804 145.701 63.7751 148.698L63.775 148.698C49.2303 151.18 34.9635 148.894 23.6701 143.189C12.3775 137.484 4.04211 128.351 1.40204 117.137L1.40202 117.136C-1.99494 102.678 4.53599 88.1019 18.7802 77.9629C18.781 77.9623 18.7817 77.9618 18.7825 77.9613L18.8122 77.939V77.9254C17.0579 66.1467 19.2167 56.1033 24.828 48.4885C30.4418 40.8705 39.488 35.7147 51.4448 33.6704C62.438 31.7772 71.9363 33.0916 80.0146 37.7C88.09 42.3068 94.7187 50.1895 100.005 61.3826C100.236 61.8693 100.388 62.2692 100.46 62.5979C100.53 62.9243 100.528 63.2139 100.406 63.4528C100.336 63.5903 100.213 63.699 100.081 63.7876C99.9456 63.8785 99.7771 63.9631 99.5868 64.0441C99.2063 64.206 98.7058 64.3671 98.1332 64.5392L98.1305 64.54L97.0357 64.8554L97.0328 64.8562C94.7505 65.4841 92.2949 65.4842 90.0126 64.8567C88.4112 64.4366 86.7202 64.321 85.0598 64.5185C77.9807 65.7303 72.4686 70.5965 69.0917 76.751C65.7127 82.9091 64.4892 90.3272 65.9639 96.5897C66.7214 99.7999 68.0319 102.13 69.7632 103.794C71.4948 105.457 73.6634 106.469 76.1624 107.013C81.1729 108.105 87.4664 107.313 94.1065 106.18C96.2711 105.723 98.2658 104.818 99.9131 103.547L99.9129 103.546L99.9217 103.54C101.013 102.77 102.188 102.091 103.43 101.511L103.431 101.51C103.992 101.252 104.615 101.112 105.249 101.1Z" stroke="black" stroke-width="0.5"/>
<path d="M79.6454 53.7733C71.366 53.7733 64.6541 48.0599 64.6541 41.0121C64.6541 33.9643 71.366 28.251 79.6454 28.251C87.9249 28.251 94.6367 33.9643 94.6367 41.0121C94.6367 48.0599 87.9249 53.7733 79.6454 53.7733Z" fill="white"/>
<g opacity="0.21">
<path d="M79.6456 28.251C80.7506 28.2551 81.8518 28.3609 82.9302 28.5664C79.6098 29.1996 76.6417 30.7765 74.5148 33.0374C72.388 35.2983 71.2291 38.1085 71.2291 41.005C71.2291 43.9014 72.388 46.7116 74.5148 48.9725C76.6417 51.2334 79.6098 52.8103 82.9302 53.4435C79.0634 54.1493 75.0256 53.5244 71.6981 51.7051C68.3706 49.8858 66.0237 47.02 65.1695 43.733C64.3154 40.4461 65.0235 37.005 67.1391 34.1608C69.2548 31.3167 72.6063 29.3004 76.462 28.5521C77.5068 28.3513 78.5745 28.2503 79.6456 28.251Z" fill="black"/>
</g>
<path d="M79.6452 54.0455C82.6768 54.0484 85.6414 53.2859 88.1639 51.8545C90.6865 50.4232 92.6538 48.3872 93.817 46.0041C94.9802 43.621 95.2872 40.9978 94.699 38.4662C94.1108 35.9346 92.6539 33.6083 90.5126 31.7815C88.3713 29.9547 85.6417 28.7095 82.6689 28.2032C79.6962 27.697 76.6139 27.9525 73.8118 28.9374C71.0096 29.9224 68.6135 31.5925 66.9265 33.7367C65.2394 35.8808 64.3372 38.4026 64.3339 40.9833C64.3294 42.6949 64.7211 44.3904 65.4865 45.9732C66.2519 47.5559 67.376 48.9949 68.7946 50.2078C70.2133 51.4208 71.8987 52.384 73.7547 53.0424C75.6106 53.7009 77.6008 54.0418 79.6115 54.0455H79.6452ZM79.6452 28.5232C82.5469 28.5204 85.3844 29.2501 87.799 30.62C90.2135 31.9899 92.0966 33.9386 93.2101 36.2195C94.3236 38.5004 94.6175 41.0112 94.0547 43.4343C93.4919 45.8574 92.0975 48.0841 90.0481 49.8327C87.9986 51.5812 85.3861 52.7732 82.5408 53.2579C79.6955 53.7425 76.7453 53.4981 74.0632 52.5555C71.3811 51.6129 69.0876 50.0144 67.4727 47.9622C65.8578 45.91 64.9941 43.4963 64.9908 41.0263C64.9886 39.3863 65.3659 37.7619 66.1011 36.246C66.8364 34.7301 67.9152 33.3523 69.276 32.1912C70.6368 31.0302 72.2529 30.1087 74.032 29.4794C75.8112 28.85 77.7186 28.5251 79.6452 28.5232Z" fill="black"/>
<path d="M56.9062 58.2757C48.6267 58.2757 41.9149 52.5624 41.9149 45.5146C41.9149 38.4668 48.6267 32.7534 56.9062 32.7534C65.1856 32.7534 71.8975 38.4668 71.8975 45.5146C71.8975 52.5624 65.1856 58.2757 56.9062 58.2757Z" fill="white"/>
<g opacity="0.21">
<path d="M56.9063 32.7534C58.0113 32.7576 59.1126 32.8633 60.1909 33.0689C56.8705 33.702 53.9025 35.2789 51.7756 37.5399C49.6487 39.8008 48.4898 42.6109 48.4898 45.5074C48.4898 48.4039 49.6487 51.214 51.7756 53.4749C53.9025 55.7359 56.8705 57.3128 60.1909 57.9459C56.3241 58.6517 52.2863 58.0268 48.9588 56.2075C45.6314 54.3883 43.2844 51.5224 42.4303 48.2355C41.5762 44.9485 42.2842 41.5074 44.3999 38.6633C46.5155 35.8191 49.867 33.8028 53.7228 33.0545C54.7675 32.8537 55.8353 32.7527 56.9063 32.7534Z" fill="black"/>
</g>
<path d="M56.906 58.5485C59.9376 58.5513 62.9021 57.7888 65.4247 56.3575C67.9472 54.9261 69.9145 52.8901 71.0777 50.507C72.241 48.1239 72.5479 45.5007 71.9597 42.9691C71.3715 40.4375 69.9147 38.1112 67.7733 36.2844C65.632 34.4576 62.9024 33.2124 59.9297 32.7062C56.957 32.1999 53.8747 32.4554 51.0725 33.4404C48.2704 34.4253 45.8743 36.0955 44.1872 38.2396C42.5002 40.3837 41.5979 42.9056 41.5946 45.4862C41.5902 47.1978 41.9818 48.8934 42.7472 50.4761C43.5126 52.0589 44.6367 53.4978 46.0554 54.7107C47.474 55.9237 49.1595 56.8869 51.0154 57.5454C52.8714 58.2038 54.8615 58.5447 56.8723 58.5485H56.906ZM56.906 33.0262C59.8077 33.0233 62.6452 33.753 65.0597 35.1229C67.4742 36.4929 69.3573 38.4415 70.4708 40.7224C71.5843 43.0033 71.8782 45.5141 71.3154 47.9372C70.7526 50.3604 69.3583 52.587 67.3088 54.3356C65.2594 56.0842 62.6468 57.2762 59.8015 57.7608C56.9562 58.2455 54.006 58.001 51.3239 57.0584C48.6418 56.1158 46.3483 54.5173 44.7334 52.4652C43.1186 50.413 42.2549 47.9993 42.2515 45.5292C42.2493 43.8892 42.6266 42.2648 43.3619 40.7489C44.0971 39.233 45.1759 37.8552 46.5367 36.6942C47.8975 35.5331 49.5136 34.6117 51.2928 33.9823C53.0719 33.3529 54.9793 33.028 56.906 33.0262Z" fill="black"/>
<path d="M56.9392 49.9451C54.0646 49.9451 51.7344 47.9615 51.7344 45.5145C51.7344 43.0676 54.0646 41.084 56.9392 41.084C59.8137 41.084 62.144 43.0676 62.144 45.5145C62.144 47.9615 59.8137 49.9451 56.9392 49.9451Z" fill="black"/>
<path d="M79.6453 45.4436C76.7707 45.4436 74.4404 43.46 74.4404 41.0131C74.4404 38.5662 76.7707 36.5825 79.6453 36.5825C82.5198 36.5825 84.8501 38.5662 84.8501 41.0131C84.8501 43.46 82.5198 45.4436 79.6453 45.4436Z" fill="black"/>
<path d="M89.4995 26.2589C88.28 25.2807 86.9735 24.3843 85.5917 23.5776C84.1395 22.6932 82.5379 22.0018 80.8416 21.5272C80.4037 21.3981 79.9657 21.2834 79.5109 21.1831C79.0533 21.0636 78.586 20.9725 78.1129 20.9106C77.6323 20.8534 77.1448 20.8534 76.6643 20.9106C76.1705 20.9349 75.6831 21.017 75.2157 21.1544C74.2791 21.4018 73.4209 21.8273 72.706 22.3986C71.991 22.97 71.438 23.6722 71.0889 24.4522L71.3415 24.7103C73.2954 24.5956 74.7103 24.4522 76.0242 24.4379H77.018L78.0118 24.3375C78.3605 24.2712 78.7158 24.2328 79.073 24.2228C79.4372 24.1941 79.8037 24.1941 80.1678 24.2228C81.6997 24.3828 83.2073 24.6808 84.6652 25.1118C86.2216 25.5193 87.751 25.9979 89.2468 26.5456L89.4995 26.2589Z" fill="black"/>
<path d="M42.1002 36.6391C43.0603 35.492 43.9699 34.3306 45.0142 33.2839C45.9912 32.2658 47.086 31.3339 48.282 30.5023C48.5736 30.3088 48.8835 30.1362 49.2084 29.9861C49.5116 29.8287 49.8334 29.6989 50.1685 29.5989L51.0781 29.2405C51.3813 29.1114 51.6508 28.9537 51.954 28.839C53.0994 28.2368 54.3627 27.7349 56.0977 26.9463V26.6165C55.3178 26.1131 54.4128 25.7686 53.4521 25.6095C52.4914 25.4504 51.5006 25.481 50.5559 25.6989C50.0724 25.7887 49.6071 25.9385 49.1747 26.1434C48.7337 26.3204 48.3297 26.5577 47.9788 26.846C47.6076 27.1068 47.2638 27.3947 46.9513 27.7063C46.6312 27.993 46.328 28.2941 46.0417 28.5952C44.9208 29.7531 44.0017 31.0425 43.313 32.4236C42.6267 33.7461 42.0635 35.1124 41.6285 36.51L42.1002 36.6391Z" fill="black"/>
<path d="M54.4976 124.175C69.928 130.15 87.3594 131.231 103.644 127.224C119.929 123.217 133.994 114.385 143.3 102.324C145.398 99.6191 147.159 96.7359 148.555 93.7207C150.002 90.6251 150.629 87.296 150.391 83.9706C150.075 80.5733 148.487 77.3519 145.86 74.7797C144.499 73.4921 142.827 72.4698 140.959 71.783C139.149 71.1052 137.23 70.6653 135.265 70.4782C131.464 70.1489 127.624 70.3769 123.912 71.1521C116.703 72.8422 109.837 75.4527 103.548 78.8948L103.666 79.0956C107.034 77.7765 110.403 76.4286 113.772 75.3246C117.151 74.1471 120.661 73.2632 124.249 72.6863C126.047 72.4112 127.865 72.2388 129.69 72.1701C131.468 72.1126 133.249 72.1846 135.013 72.3852C138.445 72.6692 141.629 74.0345 143.94 76.2136C146.15 78.451 147.471 81.2267 147.713 84.1427C147.936 87.1329 147.408 90.1294 146.163 92.9321C144.899 95.811 143.285 98.5694 141.346 101.162C136.504 107.776 130.165 113.504 122.699 118.014C115.232 122.523 106.787 125.724 97.8544 127.43C83.3599 130.189 68.2116 128.969 54.5818 123.946L54.4976 124.175Z" fill="black"/>
<path d="M103.716 76.213C101.088 78.6935 94.4513 76.213 92.969 79.6542C91.9415 82.1061 97.8707 83.9557 100.246 83.6976C103.615 83.2675 106.394 79.8263 109.662 80.5145C110.831 80.9084 111.958 81.3882 113.03 81.9483C113.819 82.2523 114.691 82.3649 115.55 82.2738C116.409 82.1828 117.222 81.8915 117.898 81.4322C118.694 80.8354 119.32 80.0934 119.731 79.2617C120.143 78.43 120.328 77.53 120.273 76.6288C120.054 73.4457 116.315 69.6604 113.637 69.0008C108.904 67.8394 106.764 73.3453 103.716 76.213Z" fill="black"/>
</svg>
